<?xml version="1.0" standalone="no"?>
<!DOCTYPE svg PUBLIC "-//W3C//DTD SVG 20010904//EN"
 "http://www.w3.org/TR/2001/REC-SVG-20010904/DTD/svg10.dtd">
<svg version="1.0" xmlns="http://www.w3.org/2000/svg"
 width="1949.000000pt" height="708.000000pt" viewBox="0 0 1949.000000 708.000000"
 preserveAspectRatio="xMidYMid meet">

<g transform="translate(0.000000,708.000000) scale(0.100000,-0.100000)"
fill="#000000" stroke="none">
<path d="M1450 4396 c-71 -19 -122 -47 -165 -91 -84 -83 -99 -159 -93 -459 3
-138 10 -223 18 -246 33 -89 97 -150 201 -193 53 -22 64 -22 664 -27 435 -4
616 -8 630 -17 52 -29 60 -49 63 -161 4 -124 -10 -163 -68 -197 -34 -20 -52
-20 -772 -23 l-738 -2 0 -156 0 -155 823 3 822 3 59 29 c69 34 133 94 161 151
18 36 20 65 23 313 3 272 3 274 -22 327 -28 61 -88 125 -145 155 -96 48 -118
50 -718 50 -610 0 -602 -1 -653 54 -23 25 -25 37 -28 130 -3 76 0 112 12 140
28 68 12 66 698 66 l613 0 90 122 c50 67 103 139 118 160 l29 38 -789 -1
c-594 0 -799 -3 -833 -13z"/>
<path d="M3370 3677 c0 -625 2 -741 15 -784 21 -71 89 -144 173 -185 l67 -33
690 0 690 0 57 27 c72 33 137 93 168 155 l25 48 3 753 2 753 -157 -3 -158 -3
-5 -662 c-5 -648 -5 -662 -26 -690 -11 -15 -40 -38 -64 -50 -44 -23 -45 -23
-540 -23 -464 0 -498 2 -537 19 -83 38 -77 -9 -83 741 l-5 665 -157 3 -158 3
0 -734z"/>
<path d="M5542 4253 l3 -158 745 -5 c701 -5 748 -6 774 -23 41 -28 56 -74 56
-177 0 -116 -14 -151 -69 -173 -37 -15 -116 -17 -776 -17 l-735 0 0 -515 0
-515 160 0 160 0 0 355 0 355 473 0 473 0 144 -355 145 -355 168 0 c92 0 167
1 167 3 0 1 -65 162 -144 357 l-145 355 56 17 c106 32 191 108 221 197 8 23
12 121 12 291 0 207 -3 265 -16 303 -31 91 -129 172 -248 203 -41 11 -203 14
-839 14 l-788 0 3 -157z"/>
<path d="M7720 4250 l0 -160 820 0 820 0 115 155 c63 85 115 157 115 160 0 3
-421 5 -935 5 l-935 0 0 -160z"/>
<path d="M10150 4396 c-109 -31 -176 -82 -219 -168 l-31 -61 0 -271 c0 -264 1
-272 24 -322 45 -96 135 -161 256 -184 31 -6 280 -10 617 -10 602 0 604 0 648
-50 17 -19 20 -39 23 -129 3 -123 -10 -162 -68 -196 -34 -20 -52 -20 -767 -23
l-733 -3 0 -154 0 -155 798 0 c878 0 851 -2 946 61 58 39 110 107 128 169 9
32 13 118 13 290 l0 245 -33 68 c-39 79 -99 132 -189 169 -58 23 -59 23 -658
28 -428 4 -606 8 -620 17 -11 6 -31 23 -45 38 -23 24 -25 36 -28 129 -3 76 0
112 12 140 28 68 12 66 698 66 l614 0 94 128 c52 70 105 142 118 160 l24 32
-788 -1 c-599 -1 -800 -4 -834 -13z"/>
<path d="M12330 4396 c-109 -31 -185 -89 -227 -174 l-28 -57 0 -630 0 -630 27
-51 c33 -63 94 -118 167 -153 l56 -26 690 0 690 0 67 33 c84 41 152 114 173
185 22 75 22 1209 0 1283 -21 68 -73 133 -136 171 -106 63 -107 63 -804 62
-472 -1 -641 -4 -675 -13z m1239 -324 c72 -38 71 -34 71 -533 l0 -446 -23 -34
c-12 -19 -42 -44 -67 -56 -44 -23 -46 -23 -540 -23 -494 0 -496 0 -540 23 -82
42 -80 30 -80 535 0 489 1 494 62 532 32 19 49 20 558 20 490 0 528 -1 559
-18z"/>
<path d="M14250 4250 l0 -160 818 0 818 0 109 148 c60 81 113 153 118 160 8 9
-179 12 -927 12 l-936 0 0 -160z"/>
<path d="M16420 4250 l0 -160 390 0 390 0 0 -710 0 -710 160 0 160 0 0 710 0
710 270 0 270 0 120 160 120 160 -940 0 -940 0 0 -160z"/>
<path d="M7720 3185 l0 -515 823 0 823 0 109 147 c61 80 112 150 113 155 2 4
-345 8 -772 8 l-776 0 0 200 0 200 660 0 660 0 120 160 120 160 -940 0 -940 0
0 -515z"/>
<path d="M14250 3185 l0 -515 155 0 155 0 0 355 0 355 664 0 664 0 108 147
c60 80 113 152 117 160 7 11 -154 13 -928 13 l-935 0 0 -515z"/>
</g>
</svg>
